<?xml version="1.0" encoding="utf-8"?>
<!-- Generator: Adobe Illustrator 26.1.0, SVG Export Plug-In . SVG Version: 6.00 Build 0)  -->
<svg version="1.1" id="Capa_1" xmlns="http://www.w3.org/2000/svg" xmlns:xlink="http://www.w3.org/1999/xlink" x="0px" y="0px"
	 viewBox="0 0 478.86 115.12" style="enable-background:new 0 0 478.86 115.12;" xml:space="preserve">
<style type="text/css">
	.st0{fill:#FFFFFF;}
	.st1{fill:#FBC024;}
</style>
<g>
	<path class="st0" d="M277.74,61.24c0-11.36-4.86-21.36-21.26-21.36c-8.42,0-15.11,2.36-18.75,4.47l2.66,9.14
		c3.33-2.11,8.65-3.85,13.69-3.85c8.31-0.02,9.69,4.71,9.69,7.75v0.72c-18.16-0.03-29.63,6.25-29.63,19.05
		c0,7.82,5.84,15.14,16.02,15.14c6.23,0,11.47-2.49,14.6-6.49h0.31c0,0,2.07,8.67,13.48,5.35c-0.6-3.61-0.8-7.45-0.8-12.09V61.24z
		 M264.2,73.25c0,0.92-0.08,1.88-0.34,2.71c-1.06,3.47-4.65,6.42-9.14,6.42c-3.77,0-6.74-2.13-6.74-6.64c0-6.89,7.57-8.8,16.22-8.75
		"/>
	<path class="st0" d="M0,24.39c0,0,11.85,48.58,13.75,56.47c2.2,9.2,6.18,12.6,17.66,10.31l7.41-30.12
		c1.88-7.48,3.13-12.81,4.34-20.42h0.21c0.85,7.69,2.06,12.97,3.6,20.45c0,0,3.02,13.67,4.56,20.85c1.55,7.18,5.85,11.7,17.1,9.24
		l17.64-66.77H72l-6.02,28.87c-1.62,8.4-3.09,14.97-4.22,22.66h-0.2c-1.03-7.61-2.34-13.92-3.98-22.1l-6.27-29.42H36.46l-6.7,28.68
		c-1.9,8.72-3.68,15.76-4.81,23.18h-0.2c-1.16-6.99-2.7-15.84-4.37-24.27c0,0-3.98-20.52-5.38-27.59"/>
	<path class="st0" d="M125.9,61.24c0-11.36-4.86-21.36-21.26-21.36c-8.42,0-15.11,2.36-18.76,4.47l2.67,9.14
		c3.33-2.11,8.65-3.85,13.69-3.85c8.32-0.02,9.69,4.71,9.69,7.75v0.72C93.76,58.07,82.3,64.35,82.3,77.15
		c0,7.82,5.84,15.14,15.98,15.14c6.25,0,11.47-2.49,14.59-6.49h0.31c0,0,2.09,8.67,13.51,5.35c-0.59-3.61-0.8-7.45-0.8-12.09V61.24z
		 M112.36,73.25c0,0.92-0.08,1.88-0.33,2.71c-1.06,3.47-4.65,6.42-9.17,6.42c-3.74,0-6.72-2.13-6.72-6.64
		c0-6.89,7.57-8.8,16.22-8.75"/>
	<polyline class="st0" points="146.84,76.99 146.84,24.4 133.28,24.4 133.28,91.17 146.84,91.17 	"/>
	<path class="st0" d="M319.3,24.39v49.26c0,6.8,1.29,11.55,4.03,14.46c2.4,2.54,6.33,4.19,11.03,4.19c4,0,7.95-0.76,9.82-1.46
		L344,80.25c-1.37,0.34-2.97,0.61-5.14,0.61c-4.63,0-6.17-2.96-6.17-9.05V52.96h11.81V40.18h-11.81V24.39"/>
	<path class="st0" d="M284.3,41v50.16h14V65.48c0-1.39,0.08-2.6,0.31-3.7c1.03-5.38,5.14-8.82,11.06-8.82
		c1.63,0,2.76,0.18,4.03,0.36V40.18c-1.06-0.21-1.78-0.31-3.08-0.31c-5.22,0-11.16,3.37-13.66,10.59h-0.36V41"/>
	<path class="st0" d="M154.7,41v50.16h13.64V61.75c0-1.38,0.16-2.83,0.65-4.11c1.11-2.96,3.87-6.43,8.26-6.43
		c5.5,0,8.09,4.65,8.09,11.36v28.59h13.61V61.39c0-1.32,0.18-2.9,0.57-4.06c1.11-3.37,4.08-6.11,8.19-6.11
		c5.55,0,8.24,4.57,8.24,12.47v27.48h13.62V61.62c0-15.58-7.91-21.75-16.84-21.75c-3.95,0-7.08,0.99-9.89,2.72
		c-2.38,1.46-4.49,3.52-6.35,6.25h-0.21c-2.15-5.4-7.21-8.97-13.82-8.97c-8.47,0-12.3,4.3-14.59,7.95h-0.21V41"/>
	<path class="st1" d="M417.77,38.76c2.69,0,4.91-1.4,5.22-3.21l2.66-30.12c0-2.98-3.49-5.43-7.88-5.43c-4.39,0-7.85,2.45-7.85,5.43
		l2.66,30.12C412.86,37.35,415.09,38.76,417.77,38.76"/>
	<path class="st1" d="M401.5,48.17c1.34-2.33,1.24-4.96-0.18-6.12l-24.77-17.36c-2.56-1.49-6.43,0.3-8.63,4.1
		c-2.19,3.79-1.78,8.03,0.77,9.52l27.41,12.76c1.73,0.64,4.05-0.59,5.4-2.92"/>
	<path class="st1" d="M434.05,48.15c1.37,2.33,3.69,3.55,5.4,2.91l27.41-12.76c2.58-1.49,2.95-5.73,0.78-9.52
		c-2.2-3.8-6.07-5.59-8.63-4.1l-24.78,17.36c-1.39,1.16-1.5,3.79-0.16,6.12"/>
	<path class="st1" d="M417.77,76.38c2.69,0,4.91,1.39,5.22,3.21l2.66,30.11c0,2.98-3.49,5.43-7.88,5.43c-4.39,0-7.85-2.44-7.85-5.43
		l2.66-30.11C412.86,77.77,415.09,76.38,417.77,76.38"/>
	<path class="st1" d="M434.05,66.97c1.37-2.34,3.69-3.55,5.4-2.9l27.41,12.75c2.58,1.5,2.95,5.74,0.78,9.53
		c-2.2,3.78-6.07,5.58-8.63,4.1l-24.78-17.36c-1.39-1.18-1.5-3.79-0.16-6.13"/>
	<path class="st1" d="M401.5,66.96c1.34,2.33,1.24,4.95-0.18,6.13l-24.77,17.35c-2.56,1.48-6.43-0.31-8.63-4.1
		c-2.19-3.79-1.78-8.04,0.77-9.53l27.41-12.75C397.83,63.42,400.15,64.63,401.5,66.96"/>
	<path class="st1" d="M474.88,87.8h0.36c0.44,0,0.65,0.16,0.7,0.53c0.1,0.39,0.16,0.68,0.26,0.8h0.85c-0.07-0.1-0.16-0.3-0.23-0.81
		c-0.1-0.45-0.31-0.72-0.62-0.82v-0.04c0.42-0.12,0.7-0.41,0.7-0.8c0-0.31-0.16-0.57-0.33-0.72c-0.26-0.17-0.54-0.26-1.16-0.26
		c-0.57,0-0.98,0.06-1.29,0.12v3.34h0.77V87.8z M474.91,86.28l0.41-0.04c0.49,0,0.73,0.21,0.73,0.51c0,0.35-0.34,0.49-0.78,0.49
		h-0.36V86.28z M475.43,84.02c-1.94,0-3.46,1.5-3.46,3.37c0,1.9,1.52,3.38,3.46,3.38c1.94,0,3.44-1.47,3.44-3.38
		C478.86,85.52,477.37,84.02,475.43,84.02 M475.43,84.7c1.47,0,2.56,1.21,2.56,2.69c0,1.49-1.09,2.7-2.56,2.68
		c-1.5,0-2.61-1.19-2.61-2.68c0-1.48,1.11-2.69,2.59-2.69"/>
</g>
</svg>
