<?xml version="1.0" encoding="utf-8"?>
<!-- Generator: Adobe Illustrator 26.1.0, SVG Export Plug-In . SVG Version: 6.00 Build 0)  -->
<svg version="1.1" id="Capa_1" xmlns="http://www.w3.org/2000/svg" xmlns:xlink="http://www.w3.org/1999/xlink" x="0px" y="0px"
	 viewBox="0 0 252.05 258.22" style="enable-background:new 0 0 252.05 258.22;" xml:space="preserve">
<style type="text/css">
	.st0{fill:#FBC024;}
</style>
<g>
	<path class="st0" d="M115.01,86.93c6.03,0,11.01-3.14,11.71-7.21l5.97-67.55c0-6.68-7.82-12.17-17.67-12.17
		c-9.84,0-17.61,5.49-17.61,12.17l5.96,67.55C104.01,83.79,108.99,86.93,115.01,86.93"/>
	<path class="st0" d="M78.51,108.04c3.01-5.23,2.79-11.12-0.4-13.74L22.55,55.36c-5.74-3.34-14.43,0.68-19.35,9.2
		c-4.92,8.51-4,18.01,1.73,21.35l61.48,28.63c3.88,1.43,9.09-1.32,12.11-6.54"/>
	<path class="st0" d="M151.52,108.01c3.07,5.23,8.28,7.97,12.11,6.53l61.47-28.62c5.79-3.34,6.61-12.84,1.74-21.35
		c-4.93-8.53-13.62-12.54-19.35-9.2l-55.57,38.94c-3.13,2.61-3.35,8.5-0.35,13.74"/>
	<path class="st0" d="M115.01,171.31c6.03,0,11.01,3.13,11.71,7.19l5.97,67.55c0,6.69-7.82,12.17-17.67,12.17
		c-9.84,0-17.61-5.47-17.61-12.17l5.96-67.55C104.01,174.44,108.99,171.31,115.01,171.31"/>
	<path class="st0" d="M151.52,150.21c3.07-5.24,8.28-7.96,12.11-6.51l61.47,28.59c5.79,3.35,6.61,12.87,1.74,21.38
		c-4.93,8.49-13.62,12.52-19.35,9.2l-55.57-38.93c-3.13-2.64-3.35-8.51-0.35-13.75"/>
	<path class="st0" d="M78.51,150.2c3.01,5.23,2.79,11.11-0.4,13.75l-55.57,38.92c-5.74,3.32-14.43-0.7-19.35-9.2
		c-4.92-8.51-4-18.03,1.73-21.38l61.48-28.6c3.88-1.45,9.09,1.28,12.11,6.52"/>
	<path class="st0" d="M243.12,196.93h0.81c0.99,0,1.45,0.36,1.57,1.19c0.23,0.87,0.35,1.52,0.58,1.79h1.92
		c-0.17-0.22-0.35-0.68-0.52-1.82c-0.23-1.01-0.7-1.61-1.39-1.85v-0.09c0.93-0.27,1.57-0.92,1.57-1.79c0-0.69-0.35-1.28-0.75-1.61
		c-0.58-0.37-1.22-0.59-2.6-0.59c-1.28,0-2.2,0.13-2.9,0.27v7.48h1.73V196.93z M243.18,193.53l0.92-0.1c1.11,0,1.63,0.46,1.63,1.15
		c0,0.78-0.76,1.11-1.74,1.11h-0.81V193.53z M244.34,188.47c-4.35,0-7.76,3.36-7.76,7.55c0,4.27,3.42,7.57,7.76,7.57
		c4.35,0,7.71-3.3,7.71-7.57C252.05,191.83,248.69,188.47,244.34,188.47 M244.34,189.98c3.3,0,5.74,2.71,5.74,6.04
		c0,3.35-2.44,6.07-5.74,6.01c-3.36,0-5.85-2.67-5.85-6.01c0-3.32,2.49-6.04,5.8-6.04"/>
</g>
</svg>
