<?xml version="1.0" encoding="utf-8"?>
<!-- Generator: Adobe Illustrator 26.1.0, SVG Export Plug-In . SVG Version: 6.00 Build 0)  -->
<svg version="1.1" id="Capa_1" xmlns="http://www.w3.org/2000/svg" xmlns:xlink="http://www.w3.org/1999/xlink" x="0px" y="0px"
	 viewBox="0 0 388.45 106.43" style="enable-background:new 0 0 388.45 106.43;" xml:space="preserve">
<style type="text/css">
	.st0{fill:#087DC0;}
</style>
<g>
	<path class="st0" d="M225.3,56.19c0-9.22-3.94-17.33-17.25-17.33c-6.83,0-12.26,1.92-15.21,3.63L195,49.9
		c2.7-1.71,7.02-3.12,11.11-3.12c6.75-0.02,7.86,3.82,7.86,6.28v0.58c-14.73-0.02-24.04,5.07-24.04,15.46
		c0,6.34,4.73,12.28,12.99,12.28c5.05,0,9.31-2.02,11.84-5.26h0.25c0,0,1.68,7.04,10.94,4.34c-0.48-2.93-0.65-6.05-0.65-9.8V56.19z
		 M214.32,65.94c0,0.75-0.06,1.52-0.27,2.2c-0.86,2.82-3.77,5.21-7.42,5.21c-3.06,0-5.47-1.73-5.47-5.38c0-5.59,6.14-7.14,13.16-7.1
		"/>
	<path class="st0" d="M0,26.31c0,0,9.62,39.41,11.15,45.81c1.79,7.47,5.02,10.22,14.32,8.36l6.01-24.44
		c1.52-6.07,2.54-10.39,3.52-16.57h0.17c0.69,6.24,1.67,10.52,2.92,16.59c0,0,2.45,11.09,3.7,16.92c1.26,5.82,4.75,9.49,13.87,7.5
		l14.31-54.17H58.41l-4.89,23.42c-1.31,6.82-2.5,12.15-3.42,18.38h-0.16c-0.83-6.18-1.9-11.29-3.23-17.93l-5.08-23.87H29.58
		l-5.44,23.26c-1.54,7.07-2.99,12.78-3.9,18.81h-0.16c-0.94-5.67-2.19-12.85-3.55-19.69c0,0-3.23-16.64-4.36-22.38"/>
	<path class="st0" d="M102.13,56.19c0-9.22-3.94-17.33-17.25-17.33c-6.83,0-12.26,1.92-15.22,3.63l2.17,7.41
		c2.7-1.71,7.02-3.12,11.1-3.12c6.75-0.02,7.86,3.82,7.86,6.28v0.58c-14.73-0.02-24.03,5.07-24.03,15.46
		c0,6.34,4.73,12.28,12.96,12.28c5.07,0,9.3-2.02,11.84-5.26h0.25c0,0,1.7,7.04,10.96,4.34c-0.48-2.93-0.65-6.05-0.65-9.8V56.19z
		 M91.15,65.94c0,0.75-0.06,1.52-0.27,2.2c-0.86,2.82-3.77,5.21-7.44,5.21c-3.04,0-5.45-1.73-5.45-5.38c0-5.59,6.14-7.14,13.16-7.1"
		/>
	<polyline class="st0" points="119.12,68.97 119.12,26.31 108.12,26.31 108.12,80.47 119.12,80.47 	"/>
	<path class="st0" d="M259.01,26.31v39.96c0,5.51,1.05,9.37,3.27,11.73c1.95,2.06,5.13,3.4,8.95,3.4c3.25,0,6.45-0.62,7.96-1.18
		l-0.15-8.59c-1.11,0.28-2.41,0.5-4.17,0.5c-3.75,0-5.01-2.4-5.01-7.34V49.48h9.58V39.12h-9.58V26.31"/>
	<path class="st0" d="M230.62,39.78v40.69h11.36V59.64c0-1.13,0.06-2.11,0.25-3c0.84-4.37,4.17-7.16,8.97-7.16
		c1.32,0,2.24,0.14,3.27,0.29V39.12c-0.86-0.17-1.45-0.25-2.49-0.25c-4.23,0-9.05,2.73-11.08,8.59h-0.29v-7.67"/>
	<path class="st0" d="M125.49,39.78v40.69h11.06V56.61c0-1.12,0.13-2.3,0.53-3.33c0.9-2.4,3.14-5.21,6.7-5.21
		c4.46,0,6.56,3.77,6.56,9.22v23.19h11.04V56.32c0-1.07,0.15-2.35,0.46-3.3c0.9-2.74,3.31-4.96,6.64-4.96
		c4.5,0,6.68,3.71,6.68,10.12v22.29h11.04V56.51c0-12.64-6.41-17.64-13.66-17.64c-3.2,0-5.74,0.8-8.03,2.21
		c-1.93,1.18-3.65,2.86-5.15,5.07h-0.17c-1.74-4.38-5.85-7.28-11.21-7.28c-6.87,0-9.97,3.49-11.84,6.45h-0.17v-5.53"/>
	<path class="st0" d="M338.89,37.96c2.18,0,3.98-1.14,4.23-2.61l2.16-24.43c0-2.42-2.83-4.4-6.39-4.4c-3.56,0-6.37,1.99-6.37,4.4
		l2.16,24.43C334.91,36.82,336.72,37.96,338.89,37.96"/>
	<path class="st0" d="M325.69,45.59c1.09-1.89,1.01-4.02-0.15-4.97l-20.1-14.08c-2.08-1.21-5.22,0.25-7,3.33
		c-1.78,3.08-1.45,6.52,0.63,7.72l22.23,10.35c1.4,0.52,3.29-0.48,4.38-2.37"/>
	<path class="st0" d="M352.1,45.58c1.11,1.89,3,2.88,4.38,2.36l22.23-10.35c2.1-1.21,2.39-4.64,0.63-7.72
		c-1.78-3.08-4.92-4.54-7-3.33l-20.1,14.08c-1.13,0.94-1.21,3.07-0.13,4.97"/>
	<path class="st0" d="M338.89,68.48c2.18,0,3.98,1.13,4.23,2.6l2.16,24.43c0,2.42-2.83,4.4-6.39,4.4c-3.56,0-6.37-1.98-6.37-4.4
		l2.16-24.43C334.91,69.61,336.72,68.48,338.89,68.48"/>
	<path class="st0" d="M352.1,60.84c1.11-1.9,3-2.88,4.38-2.36l22.23,10.34c2.1,1.21,2.39,4.65,0.63,7.73
		c-1.78,3.07-4.92,4.53-7,3.33l-20.1-14.08c-1.13-0.96-1.21-3.08-0.13-4.97"/>
	<path class="st0" d="M325.69,60.84c1.09,1.89,1.01,4.02-0.15,4.97l-20.1,14.08c-2.08,1.2-5.22-0.25-7-3.33
		c-1.78-3.08-1.45-6.52,0.63-7.73l22.23-10.34C322.72,57.96,324.6,58.95,325.69,60.84"/>
	<path class="st0" d="M385.22,77.74h0.29c0.36,0,0.53,0.13,0.57,0.43c0.08,0.31,0.13,0.55,0.21,0.65h0.69
		c-0.06-0.08-0.13-0.25-0.19-0.66c-0.08-0.37-0.25-0.58-0.5-0.67v-0.03c0.34-0.1,0.57-0.33,0.57-0.65c0-0.25-0.13-0.46-0.27-0.58
		c-0.21-0.13-0.44-0.21-0.94-0.21c-0.46,0-0.8,0.05-1.05,0.1v2.71h0.63V77.74z M385.25,76.51l0.33-0.04c0.4,0,0.59,0.17,0.59,0.42
		c0,0.28-0.27,0.4-0.63,0.4h-0.29V76.51z M385.66,74.68c-1.57,0-2.81,1.22-2.81,2.73c0,1.54,1.24,2.74,2.81,2.74
		c1.57,0,2.79-1.19,2.79-2.74C388.45,75.89,387.24,74.68,385.66,74.68 M385.66,75.23c1.19,0,2.08,0.98,2.08,2.18
		c0,1.21-0.88,2.19-2.08,2.17c-1.22,0-2.12-0.96-2.12-2.17c0-1.2,0.9-2.18,2.1-2.18"/>
</g>
</svg>
